<svg version="1.1" id="Layer_1" xmlns="http://www.w3.org/2000/svg" xmlns:xlink="http://www.w3.org/1999/xlink" x="0px" y="0px"
	 width="100%" viewBox="0 0 592 1024" enable-background="new 0 0 592 1024" xml:space="preserve">
<path fill="#000000" opacity="1.000000" stroke="none" 
	d="
M444.552917,590.510559 
	C446.728210,602.554321 449.471832,614.145569 447.200470,626.066772 
	C446.012238,632.303162 443.604858,637.227844 438.412964,642.023132 
	C433.730499,646.347900 427.919220,648.655151 423.520416,653.095398 
	C420.480804,656.163635 416.830780,655.862915 413.926331,652.440552 
	C412.621826,650.903381 411.321869,650.130981 409.221161,650.398010 
	C404.627808,650.981995 402.458435,648.323181 401.764893,644.188843 
	C400.734772,638.048279 402.172180,631.898376 401.842194,625.749146 
	C401.729767,623.653748 402.411316,621.470093 401.222443,619.396545 
	C398.914459,619.652039 398.201172,621.929382 396.492950,622.865662 
	C393.660553,624.418030 390.829224,626.040405 387.611603,624.095581 
	C384.341217,622.118958 384.191803,618.787781 384.915131,615.649780 
	C386.826019,607.359924 388.848846,598.933716 393.986572,592.013916 
	C398.837952,585.479797 394.718842,579.709595 393.396362,573.756775 
	C392.841156,571.257690 390.307343,570.916626 387.600372,571.897400 
	C377.250244,575.647583 366.704895,578.696045 355.616058,579.297607 
	C352.343414,579.475159 351.349091,581.298279 351.657501,584.310486 
	C354.581421,612.867371 354.770233,641.515015 354.084442,670.164246 
	C353.738098,684.631531 353.227051,699.159851 348.692108,713.141113 
	C348.489655,713.765198 348.194855,714.527588 348.377350,715.082825 
	C350.983459,723.011902 348.471832,731.474304 351.698639,739.558777 
	C355.365326,748.745178 355.541595,758.730591 354.484222,768.634644 
	C353.487183,777.973572 354.231720,787.250488 355.650574,796.512512 
	C356.790863,803.956238 356.804077,811.480469 355.796875,818.924255 
	C355.285553,822.703064 353.669067,826.285217 351.524872,829.513550 
	C347.820038,835.091614 347.518585,841.223938 348.821228,847.470825 
	C352.499512,865.110535 355.773499,882.800781 354.073456,900.929077 
	C352.824951,914.242432 347.181458,924.999695 334.235748,930.400391 
	C321.989044,935.509583 310.293304,933.748047 299.844818,925.704895 
	C290.935791,918.846802 289.118835,908.937866 289.379272,898.391479 
	C289.770508,882.547424 293.551758,867.031616 293.939453,851.185486 
	C294.070557,845.827148 292.413483,840.679565 289.105103,836.956360 
	C282.967010,830.048462 280.488037,822.122437 279.801514,813.291260 
	C279.246857,806.156372 278.792297,799.012817 278.152405,791.885742 
	C277.239105,781.713562 273.145203,772.234619 271.546082,762.210144 
	C271.128326,759.591431 270.507446,756.861023 270.837311,754.292053 
	C272.285339,743.014465 270.751343,731.863708 269.961121,720.667480 
	C269.788544,718.222229 268.702576,716.211975 267.919250,714.040588 
	C262.444092,698.863281 260.566772,682.977112 258.912720,667.084961 
	C257.671967,655.163757 257.026886,643.182617 256.883789,631.186523 
	C256.851898,628.514648 256.349304,626.078613 253.294662,625.390259 
	C249.908127,624.627197 249.070480,627.180725 248.201279,629.602844 
	C240.234863,651.801880 229.258194,672.544739 217.530777,692.921387 
	C216.536652,694.648743 215.701385,696.727844 214.200546,697.856995 
	C208.514664,702.134888 208.955856,708.374390 208.349167,714.339722 
	C208.203659,715.770386 208.691116,716.940369 209.447098,718.076721 
	C212.964386,723.363647 214.970596,729.372864 214.724213,735.529175 
	C214.140274,750.119873 218.133621,763.862732 221.391434,777.771057 
	C223.406387,786.373413 223.327194,794.552795 220.357498,803.240173 
	C218.788269,807.830872 219.602097,813.924255 222.078400,819.089233 
	C226.858047,829.058594 229.672806,839.651367 231.744308,850.493408 
	C232.654129,855.255432 231.554688,859.132385 228.084930,862.258301 
	C212.108688,876.651367 196.130768,891.041992 176.048874,899.771301 
	C169.396652,902.663025 162.471893,904.304321 155.305405,904.971130 
	C145.490479,905.884277 138.676025,898.910706 137.797073,887.426086 
	C137.171341,879.250061 139.701508,872.044983 143.872482,865.174438 
	C149.663635,855.635071 157.317688,847.357117 162.360962,837.296631 
	C165.132141,831.768738 167.273804,826.523621 163.576889,820.560059 
	C162.888107,819.448975 162.592163,818.121338 161.324554,817.470581 
	C152.687576,813.036621 149.409180,804.899475 148.020493,796.249939 
	C145.760986,782.176392 142.167557,768.608276 136.362442,755.594360 
	C134.722366,751.917603 133.884735,747.806213 134.023239,743.900146 
	C134.296448,736.195496 132.011902,729.365540 129.381149,722.268982 
	C124.345871,708.686157 123.862785,694.894470 130.929123,681.605042 
	C132.168259,679.274658 131.912949,676.732300 132.276871,674.287964 
	C135.023361,655.841919 141.659698,638.572021 148.432022,621.379578 
	C158.082428,596.880737 168.425064,572.694580 182.549561,550.319458 
	C184.840561,546.690186 185.553345,542.859192 182.608444,538.730286 
	C176.797531,530.583130 179.282104,521.391663 180.246140,512.544128 
	C181.471619,501.297058 183.118393,490.096008 184.560562,478.872162 
	C184.661850,478.084015 184.573822,477.271515 184.573822,476.218903 
	C180.737885,476.618439 178.621170,478.298553 177.268784,481.613647 
	C173.921234,489.819397 167.623535,495.020142 159.352615,497.837463 
	C157.260345,498.550140 155.432159,499.423340 153.746170,500.888763 
	C143.386765,509.892822 131.923416,517.279297 119.841652,523.740723 
	C114.354645,526.675293 107.760712,527.094055 103.007637,531.948853 
	C101.143753,533.852661 99.681160,535.371704 99.431587,538.018066 
	C98.724861,545.511841 96.388733,552.671082 94.795898,559.982910 
	C93.943359,563.896423 91.818726,566.965393 87.499413,566.968140 
	C82.696350,566.971191 80.529213,563.612427 79.708031,559.292969 
	C79.162758,556.424805 78.803398,553.521240 78.241096,549.852417 
	C72.742065,552.909607 70.735550,557.694275 68.374008,562.109924 
	C67.202827,564.299866 66.234512,566.659424 65.580551,569.053223 
	C63.711082,575.896423 57.967365,577.933105 52.257393,579.698059 
	C48.626389,580.820374 46.167587,578.348083 44.863232,575.207397 
	C40.427898,564.527954 38.012012,553.838074 43.189262,542.475403 
	C48.499710,530.820374 55.149780,520.179688 64.187248,511.098724 
	C66.118988,509.157684 67.822006,507.318054 67.973663,504.365448 
	C68.039001,503.093384 68.669952,501.787628 69.273399,500.615295 
	C79.818047,480.129517 94.311539,463.170776 113.997894,450.924561 
	C117.319527,448.858276 119.838608,446.273010 122.048424,442.990601 
	C125.928154,437.227753 131.430847,433.068115 137.733109,430.164490 
	C140.043671,429.099945 141.268661,427.565704 142.371506,425.350098 
	C154.019409,401.949768 168.257111,380.671387 191.007401,366.380890 
	C195.023483,363.858215 200.071640,363.071930 203.036087,358.667389 
	C204.579224,356.374664 205.560135,354.241791 205.888702,351.456024 
	C206.922485,342.690704 207.529678,333.444489 212.526917,326.081635 
	C216.326447,320.483490 217.825653,316.728119 214.713654,309.797882 
	C209.927597,299.139526 215.705307,285.497650 225.170578,278.631775 
	C229.672714,275.366058 231.658630,269.973969 232.522873,264.868713 
	C234.408722,253.728775 235.379181,242.432358 236.662399,231.192886 
	C237.022003,228.043167 236.939713,224.959930 235.781708,221.857101 
	C234.538696,218.526474 235.500946,215.564896 238.755264,213.754120 
	C241.864304,212.024185 244.922073,212.210831 247.406250,214.896805 
	C249.944962,217.641754 249.623840,220.757065 247.647049,223.622177 
	C242.069580,231.706055 244.311630,241.122177 242.122238,249.599319 
	C244.415634,250.554550 245.102188,249.375061 245.936081,248.666641 
	C275.512543,223.540573 314.335083,221.561066 345.415955,244.652237 
	C364.204285,258.610779 374.140930,278.041321 374.955322,301.642242 
	C375.128601,306.663513 375.855988,311.561127 376.365662,316.514496 
	C376.671448,319.485596 378.273254,320.868652 381.041962,321.487518 
	C386.077148,322.612915 391.109528,323.778290 396.079773,325.155487 
	C398.787109,325.905609 399.828522,324.932159 400.923187,322.496460 
	C410.010590,302.276398 411.786835,280.160980 417.556549,259.088470 
	C418.070679,257.210632 417.208649,255.496002 416.916199,253.704956 
	C416.334442,250.141586 416.978699,246.877792 420.640778,245.309555 
	C423.948425,243.893127 426.994141,244.847656 428.982056,247.821884 
	C431.107941,251.002502 430.654480,254.223938 427.878479,256.870026 
	C426.226562,258.444550 425.322479,260.246552 424.831573,262.438446 
	C421.085297,279.166199 416.855560,295.801727 413.721466,312.641846 
	C412.628754,318.513275 413.559998,324.831757 412.254456,330.864929 
	C411.996124,332.058807 412.481812,333.149414 413.335846,334.057465 
	C425.004974,346.465424 426.398224,361.710846 424.849487,377.521088 
	C423.373291,392.590637 421.308533,407.603516 419.408081,422.629395 
	C419.101166,425.056152 419.644562,427.254059 420.314972,429.486603 
	C424.618408,443.817719 430.626953,457.648987 432.954315,472.557892 
	C433.229980,474.323944 434.442474,475.471405 435.401825,476.822968 
	C442.161835,486.347107 445.516083,496.600555 444.666473,508.631531 
	C444.200867,515.225037 446.807678,521.994202 447.652374,528.731323 
	C448.933289,538.947632 451.810059,549.413757 448.822571,559.451294 
	C446.292053,567.953186 447.420319,576.877991 444.342438,585.168335 
	C443.811310,586.598877 444.386505,588.440247 444.552917,590.510559 
M272.027313,607.494873 
	C268.996796,612.073853 265.959961,616.648743 262.939056,621.234070 
	C261.821808,622.929871 260.970123,624.757019 261.063873,626.831970 
	C261.552002,637.635437 261.830078,648.457275 262.697723,659.231201 
	C263.193359,665.385254 264.343506,665.753662 270.538910,663.897644 
	C287.463837,658.827271 304.688538,656.890381 322.335480,658.552185 
	C328.806030,659.161560 335.159760,660.387573 341.575348,661.266785 
	C346.979919,662.007446 349.594818,660.089111 349.777344,655.278992 
	C350.833923,627.434082 348.439484,599.734375 346.267059,572.020142 
	C345.891113,567.224060 343.784302,565.720459 339.228912,566.203003 
	C321.672455,568.063110 306.366638,575.030212 292.342590,585.597168 
	C287.902771,588.942566 286.770721,594.202576 282.957336,597.869751 
	C279.592529,601.105530 275.063507,602.911072 272.027313,607.494873 
M310.146088,759.522461 
	C297.108093,759.810974 288.145203,753.439636 282.140778,742.310547 
	C281.322510,740.794006 280.655701,739.177673 278.584106,739.415222 
	C276.400085,739.665588 276.258850,741.465942 276.077728,743.155640 
	C275.811798,745.636414 275.498962,748.113220 275.289307,750.598755 
	C274.720123,757.346558 275.651062,763.485107 281.427521,768.139587 
	C283.111084,769.496155 284.941742,771.322815 285.264618,774.098083 
	C282.552124,773.674194 281.158356,771.163696 278.270599,771.540955 
	C280.502228,781.075928 283.217133,790.310242 283.790253,799.984863 
	C284.192810,806.780273 283.694916,813.613464 285.160889,820.381836 
	C287.144562,829.540222 292.035645,835.576599 301.349670,838.011353 
	C305.585541,839.118652 309.782349,839.601990 314.123840,839.841980 
	C323.810883,840.377502 332.436432,836.696899 341.035217,833.222839 
	C345.425873,831.448853 348.367920,827.670044 349.889130,822.934448 
	C352.286407,815.471680 352.934174,807.709290 351.552795,800.209229 
	C348.926239,785.948669 349.954285,771.674194 349.992035,757.388733 
	C350.007599,751.500244 349.280029,745.800232 347.209839,740.250366 
	C345.765320,736.377747 343.808929,733.280457 339.123413,733.491394 
	C334.780945,733.686890 332.404755,735.595947 330.498474,740.059326 
	C327.646881,746.736206 325.549469,754.475464 317.736786,757.868286 
	C315.531799,758.825928 313.258545,759.069946 310.146088,759.522461 
M289.891174,529.512268 
	C306.714142,529.320312 323.500885,528.586853 340.081909,525.483337 
	C348.443573,523.918213 354.766174,511.944275 351.698608,503.906921 
	C351.086670,502.303558 349.659851,501.786041 348.362213,501.098541 
	C339.797089,496.560760 331.823456,491.149475 324.211853,485.154205 
	C321.476562,482.999725 318.501007,481.085480 315.436859,479.428101 
	C310.604156,476.814026 309.059082,477.424103 308.482574,482.692047 
	C307.483124,491.824646 304.608093,495.294464 292.175171,494.509247 
	C284.876129,494.048248 277.609222,493.048553 270.335358,492.224915 
	C253.636276,490.333923 236.964432,488.268402 220.547607,484.528778 
	C218.001923,483.948883 215.761520,483.112579 214.457657,480.674438 
	C212.732773,477.449158 210.849487,474.297089 209.323654,470.980408 
	C208.002991,468.109650 206.845795,465.597565 202.891602,466.062988 
	C198.726349,466.553345 196.667847,468.820862 196.087219,472.766937 
	C194.657364,482.484619 193.289124,492.211426 193.237915,502.059540 
	C193.211700,507.099701 195.724350,510.622131 200.236938,512.635925 
	C213.231964,518.434998 226.888092,522.092651 240.817505,524.745422 
	C256.717804,527.773560 272.822174,528.856384 289.891174,529.512268 
M171.803024,733.388916 
	C168.362259,736.322998 164.888168,738.907959 159.883667,738.555298 
	C157.646210,738.397583 155.301926,739.288879 153.276367,740.569702 
	C149.697128,742.832947 146.408447,742.814331 143.552322,739.318237 
	C142.688843,738.261230 141.683563,737.253235 140.164658,737.882507 
	C138.527557,738.560669 138.166397,740.106812 138.310150,741.640198 
	C138.573181,744.445374 138.523102,747.427429 139.500717,749.994019 
	C145.721344,766.326233 149.944794,783.149597 153.697037,800.211243 
	C156.274384,811.930542 162.975067,815.962708 174.954529,816.959351 
	C188.439240,818.081238 200.093552,813.486328 210.998795,806.131714 
	C216.013916,802.749573 218.221054,797.878357 218.299484,792.118530 
	C218.355774,787.985291 218.192963,783.709717 217.206055,779.726013 
	C213.242203,763.725586 209.198669,747.776245 209.529770,731.099548 
	C209.586884,728.221680 208.178589,725.655212 207.126923,723.021179 
	C205.680237,719.397644 203.129349,717.866028 199.314774,718.321716 
	C194.358139,718.913879 189.401474,719.348389 184.392853,719.279297 
	C176.536118,719.171082 173.847519,721.583557 172.701584,729.420471 
	C172.535599,730.555603 172.376862,731.691711 171.803024,733.388916 
M151.186249,625.725098 
	C149.528000,629.516846 149.509781,632.637634 154.543167,633.502075 
	C178.194839,637.564026 198.953796,647.970154 218.041016,662.177063 
	C223.487579,666.231079 226.577194,665.345276 230.119812,659.288208 
	C235.680420,649.780945 239.999039,639.720337 243.699188,629.351746 
	C245.013901,625.667664 244.112274,623.288696 241.034439,621.315491 
	C234.888687,617.375488 230.351059,611.850586 226.182343,606.001953 
	C214.697891,589.889160 203.626831,573.472107 190.963013,558.230774 
	C189.521530,556.495911 188.412506,554.311951 185.238373,553.583496 
	C171.372025,576.094666 161.392120,600.533203 151.186249,625.725098 
M308.816315,444.738983 
	C314.464661,446.994995 313.523987,451.828796 313.025360,456.222656 
	C312.678864,459.275604 313.588379,460.675018 316.485840,461.703064 
	C322.809509,463.946838 328.323090,467.697235 333.728912,471.651947 
	C339.896606,476.164032 345.802094,481.166077 353.005188,484.034576 
	C356.514893,485.432220 358.457214,483.524292 357.689270,479.834015 
	C357.259308,477.767761 355.714630,476.892395 354.015747,476.087372 
	C343.535248,471.120941 337.582886,462.192139 335.275146,451.487946 
	C329.062897,422.673401 335.938660,397.412689 357.656128,376.756042 
	C358.845825,375.624420 361.011780,375.033173 360.674988,372.400055 
	C357.881012,372.458008 356.138184,374.350800 354.218933,375.767914 
	C347.644592,380.622070 341.002319,385.329315 333.353455,388.428497 
	C309.125183,398.245392 284.179382,399.601044 259.516510,391.771301 
	C242.453018,386.354126 227.829514,376.563965 223.621582,356.971252 
	C223.502777,356.418030 222.922318,355.963989 222.582855,355.498962 
	C219.535599,356.146515 219.516617,358.501221 219.218018,360.591492 
	C215.583054,386.038208 210.319672,411.077820 201.040405,435.156860 
	C199.329376,439.596863 198.533463,444.297089 198.933014,449.314484 
	C200.252869,449.185913 201.265076,448.888611 202.214508,449.025726 
	C211.344849,450.344421 212.401245,439.595093 219.309052,437.537323 
	C219.755020,437.404480 219.788498,435.703583 219.917084,434.719482 
	C220.585724,429.602264 221.183075,424.475525 221.880020,419.362274 
	C223.082016,410.543701 228.401123,405.327240 236.976807,404.854736 
	C240.112015,404.682007 243.300873,404.996643 246.433212,405.362946 
	C252.381393,406.058502 258.314148,406.899475 264.239471,407.773773 
	C275.592163,409.448914 286.965393,411.014313 298.271332,412.965820 
	C305.573212,414.226135 307.978271,417.560822 308.252441,425.068695 
	C308.418549,429.617889 307.352356,434.002106 306.708282,438.442139 
	C306.387878,440.650604 306.006256,442.777771 308.816315,444.738983 
M399.152893,404.711243 
	C401.400208,403.221619 401.033905,401.414734 399.691498,399.587006 
	C398.313324,397.710632 397.013977,395.728943 395.376770,394.097839 
	C383.396362,382.162140 383.442261,381.852722 369.338593,391.787231 
	C367.733887,392.917633 366.404480,394.499146 365.123932,396.020111 
	C352.410278,411.121033 347.545990,428.781616 349.588989,448.095184 
	C350.294464,454.764771 350.876892,462.617126 358.975403,465.970947 
	C359.549469,466.208679 359.983246,467.299469 360.099060,468.052521 
	C361.890381,479.700531 369.246246,488.508820 375.372803,497.918243 
	C377.751343,501.571259 380.500732,502.163849 384.472778,499.192963 
	C393.781250,492.230682 404.519714,488.116821 415.734222,485.291656 
	C420.857849,484.000916 428.470795,474.807068 427.740143,469.513763 
	C426.347198,459.422485 423.191345,449.776855 418.616272,440.651520 
	C417.060822,437.549042 414.467621,436.616119 411.064148,437.663971 
	C405.315460,439.433777 399.673187,441.441650 394.669586,444.851227 
	C391.462158,447.036865 389.301666,446.889343 387.963959,442.816589 
	C385.506805,435.335907 381.834564,428.400970 377.451294,421.909088 
	C374.656738,417.770203 375.801666,415.515381 379.750916,413.174225 
	C385.679474,409.659760 392.047668,407.309540 399.152893,404.711243 
M274.801239,550.063293 
	C272.817780,549.838501 270.839630,549.535889 268.850098,549.400940 
	C244.980209,547.782349 221.601929,543.933594 199.468491,534.314026 
	C198.064804,533.703979 196.507126,532.445801 194.998993,534.188904 
	C194.593719,535.900818 195.961975,536.567139 196.804398,537.528870 
	C211.607437,554.427490 224.655594,572.354126 231.105423,594.334900 
	C233.073975,601.043762 236.093307,607.386658 239.509750,613.517578 
	C241.030746,616.247131 243.092606,618.308411 245.978836,619.488892 
	C251.534607,621.761230 252.735321,621.086792 254.543976,615.362305 
	C266.294373,578.171875 292.851532,557.902222 329.828766,549.510742 
	C334.181763,548.522888 338.865936,548.929932 342.901154,546.003357 
	C320.564911,548.868408 298.237427,550.970703 274.801239,550.063293 
M152.380844,892.760925 
	C158.931229,892.282959 165.068298,890.315735 171.071732,887.748962 
	C187.064026,880.911499 200.524063,870.225159 213.513901,859.067200 
	C228.346039,846.326660 227.834641,848.446838 221.683136,829.672302 
	C221.170273,828.107056 220.359512,826.625244 219.572845,825.166382 
	C216.783005,819.992554 215.722839,819.657532 210.716904,822.594727 
	C199.412003,829.227783 187.446609,832.261230 174.361404,829.522339 
	C172.043945,829.037231 170.069580,829.319702 169.131882,831.972778 
	C165.068924,843.467896 157.428909,852.784973 150.514572,862.554565 
	C146.153442,868.716614 142.464142,875.240417 142.116241,883.047363 
	C141.760513,891.029358 143.377472,892.636658 152.380844,892.760925 
M135.311142,453.062134 
	C130.265533,448.468140 124.452713,449.317474 119.556305,452.337067 
	C104.434624,461.662567 90.877045,472.860901 81.383781,488.243408 
	C78.208260,493.388885 78.537117,494.446045 84.201080,496.524261 
	C94.395699,500.264954 101.881912,506.945221 106.575394,516.690063 
	C109.719215,523.217407 111.014725,523.974243 117.581741,520.416321 
	C124.592468,516.617981 131.499695,512.536255 138.040176,507.986145 
	C145.890762,502.524658 154.275497,497.381470 157.310104,487.266113 
	C157.870789,485.397125 158.183258,483.947510 157.281876,482.099945 
	C151.963455,471.198700 144.883820,461.642700 135.311142,453.062134 
M195.861557,435.415649 
	C197.136047,412.746399 198.410522,390.077179 199.725662,366.684814 
	C192.850723,368.939240 187.995117,372.934052 183.018997,376.725677 
	C180.374451,378.740723 179.804184,380.744446 182.700089,383.118408 
	C185.782898,385.645599 185.177765,387.998474 182.345642,390.496552 
	C177.451157,394.813873 173.652161,400.123016 169.829391,405.360443 
	C164.380142,412.826294 164.457291,412.881134 157.151947,408.820190 
	C157.025421,408.749878 156.825607,408.811401 156.125824,408.811401 
	C151.360931,417.004150 145.580505,424.906769 143.790329,434.896240 
	C143.185287,438.272430 143.951736,440.576843 146.287430,442.913940 
	C155.024155,451.656067 163.049942,460.972931 168.526077,472.197845 
	C169.997971,475.214905 172.394348,476.146393 175.522446,475.595245 
	C180.996948,474.630676 186.430389,468.591003 186.904694,462.945679 
	C187.118057,460.406189 187.441376,457.607635 189.315781,456.003204 
	C195.535629,450.679321 195.027985,443.336182 195.861557,435.415649 
M432.046661,562.809570 
	C443.247620,565.886780 445.189331,564.504578 445.019226,552.386414 
	C444.912140,544.757080 444.107666,537.133423 443.501709,529.516296 
	C442.654327,518.863464 440.505066,508.941559 428.652893,504.898956 
	C428.504395,504.848328 428.361389,504.721191 428.262848,504.593445 
	C425.383789,500.862122 421.425873,500.821136 417.383820,501.633209 
	C407.524353,503.614075 398.166779,506.928284 389.651611,512.423157 
	C386.453979,514.486572 384.790161,517.095947 384.960938,521.084595 
	C385.524841,534.253113 387.798920,547.136658 391.042847,559.870056 
	C391.827393,562.949646 393.287628,565.768005 395.157379,568.354492 
	C396.105530,569.666077 397.199829,570.671692 398.903870,569.613098 
	C408.826599,563.448975 419.912354,562.787109 432.046661,562.809570 
M310.368713,918.281921 
	C326.438080,924.010925 344.138367,914.387878 346.847900,897.585327 
	C349.104065,883.594116 348.378662,869.436157 345.885223,855.417847 
	C344.850708,849.601685 342.788544,848.157715 337.356201,850.475708 
	C326.530060,855.095093 315.492737,855.668884 304.220001,852.639160 
	C300.543793,851.651245 298.542725,852.529480 298.090179,856.620361 
	C296.958160,866.854004 295.571472,877.059021 294.376343,887.286011 
	C292.379700,904.371399 296.300110,912.195007 310.368713,918.281921 
M224.379181,430.856842 
	C223.608292,435.432007 225.102173,441.221680 219.325424,443.388367 
	C215.368256,444.872559 213.973541,447.412415 213.583435,451.138123 
	C213.150940,455.268616 212.774261,459.408722 212.189133,463.518433 
	C211.551163,467.999451 213.770554,469.947327 217.862564,470.560455 
	C223.780182,471.447144 229.675430,472.489716 235.601624,473.311279 
	C252.231323,475.616821 268.788025,478.454742 285.528839,479.961731 
	C290.164917,480.379059 292.312134,478.590820 292.828705,474.060944 
	C293.638062,466.963776 294.710785,459.897003 295.619965,452.810699 
	C296.017517,449.711884 295.344757,447.281799 291.824646,446.265289 
	C288.403381,445.277344 287.322662,442.604645 287.650940,439.237335 
	C288.069885,434.940186 288.495514,430.643646 288.902405,426.345337 
	C289.184601,423.363892 287.918518,421.594727 284.873199,421.144623 
	C278.467224,420.197723 272.066620,419.214539 265.665924,418.232178 
	C262.303101,417.716064 260.718872,419.278625 260.377716,422.533051 
	C259.285126,432.955841 258.236115,443.384766 256.968658,453.786743 
	C256.535034,457.345520 257.932831,458.455444 261.266907,458.808014 
	C267.811676,459.500122 268.203827,460.209869 267.260590,466.748840 
	C266.271912,473.602753 266.030090,473.764771 258.927338,472.583282 
	C257.945374,472.419922 256.941589,472.291168 255.949585,472.302002 
	C252.666138,472.337891 251.489487,470.605621 251.811691,467.542419 
	C252.315903,462.748840 252.996933,457.966309 253.293015,453.159973 
	C253.917419,443.023346 255.522079,433.006958 256.674042,422.935242 
	C256.962555,420.412781 257.775696,417.149872 253.927216,416.500122 
	C246.881790,415.310608 239.790848,414.381927 232.707474,413.429382 
	C229.142426,412.949982 226.955521,414.527863 226.382965,418.157532 
	C225.761169,422.099548 225.140289,426.041748 224.379181,430.856842 
M142.199051,651.746826 
	C139.848373,656.776306 138.786865,662.179688 137.694794,667.562317 
	C136.299225,674.440857 137.377762,675.676147 144.497147,674.654968 
	C149.146500,673.988159 153.820099,673.214661 158.409622,674.126282 
	C169.221771,676.273926 173.374817,684.829712 176.090378,694.101013 
	C177.349838,698.401123 179.757019,700.256775 183.764755,700.573303 
	C187.748184,700.888000 191.803436,700.576904 195.739838,701.145203 
	C204.280655,702.378357 209.744614,698.579895 213.379379,691.268433 
	C213.897476,690.226379 214.423752,689.163574 215.116028,688.237305 
	C217.263657,685.363831 216.351364,683.072815 214.087845,680.750183 
	C210.316086,676.879944 205.642853,674.261780 201.275284,671.225098 
	C185.333542,660.140930 167.772263,652.834839 148.803009,648.794983 
	C146.093994,648.218018 143.828812,648.125427 142.199051,651.746826 
M266.026825,685.978577 
	C266.711670,694.306458 268.398254,702.425110 271.143616,710.318481 
	C271.970062,712.694641 272.775726,715.527893 275.726685,715.591003 
	C279.025146,715.661682 278.410370,712.382751 279.102600,710.332214 
	C281.765930,702.442688 286.564453,696.172424 294.925964,694.643311 
	C300.000336,693.715332 305.514679,694.908752 310.797272,695.470032 
	C318.820038,696.322449 325.112671,700.059326 328.208344,707.774414 
	C330.184937,712.700439 333.748016,713.377563 338.243042,712.767822 
	C342.591888,712.177979 345.167603,709.650085 345.980560,705.465942 
	C346.963684,700.405640 347.836700,695.315613 348.515228,690.206238 
	C349.626862,681.835999 348.653625,680.191528 340.428955,678.314636 
	C316.867188,672.937622 293.527435,673.652283 270.555237,681.538330 
	C268.676178,682.183411 266.741608,682.907104 266.026825,685.978577 
M327.598450,719.162476 
	C326.254395,708.689514 320.283722,702.262878 310.159210,699.849792 
	C303.987976,698.379028 297.913483,699.724609 292.035522,701.753967 
	C287.004059,703.491028 284.246277,707.245911 283.305786,712.387878 
	C281.553101,721.970093 282.788727,731.253784 286.214630,740.298889 
	C287.552368,743.830933 289.733948,746.754883 293.019775,748.646667 
	C305.975891,756.106262 328.786652,750.389465 328.000671,730.021545 
	C327.872406,726.697021 327.808075,723.370056 327.598450,719.162476 
M336.043060,265.434448 
	C344.774597,273.228821 351.537903,282.546539 355.510345,293.480133 
	C357.355408,298.558533 359.753021,300.984833 365.111023,301.566803 
	C369.244720,302.015808 370.915985,300.826691 370.464539,296.900269 
	C370.047363,293.271515 369.561218,289.602844 368.594574,286.092438 
	C358.110565,248.020020 318.876312,225.061935 280.575104,234.494934 
	C271.157471,236.814346 260.377258,242.192566 256.683258,246.454147 
	C286.125854,239.326965 312.449585,245.242813 336.043060,265.434448 
M146.119904,732.658020 
	C147.781494,732.743286 149.444656,732.925293 151.104446,732.898499 
	C164.641937,732.680481 172.146088,725.472473 172.653290,711.956543 
	C172.796082,708.150879 172.484894,704.299805 172.055603,700.506409 
	C170.734833,688.835754 164.780655,682.457642 153.270523,680.527954 
	C150.178970,680.009644 146.962067,680.132629 143.803299,680.143005 
	C136.158859,680.168213 134.405273,681.512024 132.176941,689.031311 
	C128.938553,699.958984 130.106979,710.714294 133.312073,721.460999 
	C135.156067,727.643799 138.648895,731.690674 146.119904,732.658020 
M352.727112,521.077576 
	C350.697876,524.297180 349.836212,527.652466 350.757782,531.516296 
	C351.344757,533.977173 350.648804,536.571106 349.579132,538.805115 
	C347.644073,542.846558 348.140350,547.001465 348.927368,551.018433 
	C349.798981,555.466919 350.220367,559.720215 349.669525,564.312500 
	C349.269562,567.646484 348.839966,572.322327 352.562744,574.201477 
	C356.603180,576.240967 360.302307,573.676941 363.281158,570.824402 
	C366.960388,567.301025 369.586578,563.029541 370.574249,557.995483 
	C373.809937,541.503601 375.150024,524.748840 377.290894,508.105072 
	C377.390900,507.327423 377.378479,506.271942 376.941620,505.730591 
	C373.652893,501.654846 370.244629,497.675568 366.820435,493.602844 
	C364.014893,495.759369 364.651031,499.622864 361.971436,500.934998 
	C356.056091,503.831635 355.589630,509.206635 354.962372,514.723389 
	C354.742981,516.653198 353.726807,518.492432 352.727112,521.077576 
M310.372803,337.896362 
	C312.680603,335.445709 315.513428,333.738403 318.369232,332.006683 
	C326.133331,327.298676 327.116394,319.353241 320.875397,312.711456 
	C312.629364,303.935883 296.208282,304.140564 288.195953,313.405304 
	C281.753693,320.854553 279.935547,334.060364 289.395660,343.198608 
	C291.532349,345.262604 294.373962,346.398163 297.189362,345.180969 
	C301.578491,343.283325 306.291931,341.874664 310.372803,337.896362 
M322.271881,532.079163 
	C310.797607,532.295288 299.363617,533.482361 287.865814,533.284973 
	C276.698151,533.093201 265.524658,533.243347 254.353729,533.243347 
	C254.200806,533.762451 254.047882,534.281494 253.894958,534.800598 
	C260.247772,533.334351 264.540863,537.199768 267.733551,540.727722 
	C273.063629,546.617615 279.396484,545.568604 285.815033,545.933899 
	C301.023590,546.799561 316.017090,544.801697 330.971802,542.537659 
	C334.694366,541.974121 338.691223,542.205933 342.087036,540.063049 
	C344.858459,538.314209 346.574707,535.992615 345.460266,532.553528 
	C344.304413,528.986450 341.369537,529.112305 338.460846,529.553589 
	C333.367249,530.326416 328.288605,531.197876 322.271881,532.079163 
M423.407684,580.242615 
	C414.469269,580.315796 414.409149,580.307190 413.157684,589.073853 
	C412.430542,594.167175 411.925201,599.292480 411.334412,604.405029 
	C410.519104,611.460815 412.449036,613.822083 419.612640,612.905823 
	C425.850616,612.107971 431.719513,612.090698 437.710846,614.340698 
	C441.246613,615.668518 443.293610,613.555542 443.117889,609.653992 
	C442.795105,602.486328 441.600006,595.465454 439.758972,588.528198 
	C438.800476,584.916504 436.554230,582.703186 433.101807,581.819641 
	C430.222473,581.082825 427.236389,580.762878 423.407684,580.242615 
M418.186066,398.774292 
	C419.317780,389.009674 420.496735,379.247620 420.520172,368.548706 
	C414.221588,375.872833 411.272888,377.111328 407.972351,374.192474 
	C405.866211,372.329926 405.053619,369.745758 404.937012,367.030609 
	C404.701996,361.559296 408.214691,358.396301 412.789001,356.031433 
	C409.032501,353.110718 398.383850,354.499786 396.589569,357.729858 
	C396.210938,358.411530 396.121368,359.325897 396.119202,360.133606 
	C396.095215,369.107758 396.100922,378.082062 396.145966,387.056122 
	C396.149963,387.857391 396.240753,388.854889 396.703949,389.427185 
	C402.140137,396.143341 407.079803,403.213196 412.053925,410.270508 
	C413.845428,412.812286 415.947968,411.846924 416.601562,408.997437 
	C417.303894,405.935150 417.597443,402.779083 418.186066,398.774292 
M287.466797,380.282257 
	C267.807098,380.096863 249.537247,375.780701 234.465912,361.958374 
	C236.796921,365.896362 240.212723,369.112640 243.708252,371.117065 
	C264.230042,382.884674 286.350464,385.351166 309.400085,382.365265 
	C322.238098,380.702179 334.395294,377.107971 345.768768,370.681519 
	C354.650299,365.663086 359.641968,358.333435 361.713745,348.681122 
	C355.233643,346.470490 350.893616,348.355042 346.579834,353.134094 
	C331.099457,370.284210 311.435394,378.977509 287.466797,380.282257 
M374.756866,341.198975 
	C372.730011,340.250000 371.445343,341.349091 369.934143,342.598816 
	C365.160614,346.546448 364.977936,352.604462 362.905548,357.726288 
	C359.949615,365.031982 362.864258,369.527191 370.739227,370.766754 
	C375.397583,371.500000 379.164093,373.626007 382.262146,377.101746 
	C383.475342,378.462860 384.608917,379.953125 386.032898,381.056580 
	C389.450775,383.705017 391.350433,383.009216 392.183533,378.751495 
	C393.248352,373.309662 392.639954,367.860260 392.019562,362.392761 
	C390.828369,351.895264 385.223541,345.027161 374.756866,341.198975 
M327.330566,553.917297 
	C311.898315,556.985657 298.873596,564.771484 286.978302,574.679749 
	C282.139618,578.710205 277.039642,582.564087 274.502045,588.696106 
	C273.938232,590.058594 272.621704,591.443909 274.037140,592.748230 
	C275.718597,594.297607 277.082306,592.670288 278.361969,591.713623 
	C279.559052,590.818726 280.661560,589.797119 281.802673,588.827637 
	C288.783295,582.897095 295.947235,577.258911 304.197479,573.102600 
	C314.827393,567.747559 325.860657,563.781433 337.728485,562.272522 
	C340.848877,561.875793 344.557678,561.495300 344.234283,557.070801 
	C343.885895,552.304749 340.234650,551.914673 336.491608,552.343079 
	C333.694763,552.663147 330.929138,553.255981 327.330566,553.917297 
M203.435852,518.292480 
	C199.858673,516.207092 196.485092,515.552307 194.171783,519.993774 
	C192.403946,523.388000 194.099335,527.142334 198.446228,529.259521 
	C201.133560,530.568420 204.001801,531.502075 206.770081,532.649353 
	C217.768616,537.207642 229.367630,539.512268 240.989075,541.693604 
	C242.819092,542.037170 245.858765,542.884766 246.173370,540.499390 
	C246.516602,537.897278 248.422546,536.254333 249.056656,533.926758 
	C244.226349,530.676575 239.196365,528.690063 233.754242,527.535706 
	C223.635681,525.389282 213.819839,522.193726 203.435852,518.292480 
M403.260345,342.272461 
	C399.112518,341.037140 397.427612,338.220398 397.836151,333.977264 
	C398.035583,331.905731 397.859558,329.878174 395.480286,329.052948 
	C389.410187,326.947662 383.233093,325.334198 376.668457,324.680908 
	C376.091980,326.797363 375.817810,328.446594 375.199341,329.954620 
	C373.314056,334.551361 374.609802,337.241669 379.364685,339.101288 
	C384.854950,341.248535 389.362579,344.961609 392.498413,350.128693 
	C393.274231,351.407135 394.181091,352.957794 395.912018,352.577148 
	C402.801086,351.062134 409.768188,349.781067 416.652710,347.301971 
	C415.646759,343.547974 414.368073,340.706207 411.062714,338.839996 
	C409.238861,341.339905 407.322540,343.438416 403.260345,342.272461 
M82.266548,513.808044 
	C74.682098,508.574188 71.075066,508.992798 65.259323,515.930969 
	C62.373478,519.373657 59.356842,522.751221 56.863548,526.469482 
	C51.222664,534.881714 48.652866,536.337036 61.063332,539.144531 
	C61.873463,539.327759 62.702789,539.503418 63.460434,539.828735 
	C67.743690,541.667969 70.492638,539.728210 72.487549,536.130798 
	C75.635651,530.453613 78.734428,524.748291 81.784637,519.018005 
	C82.543823,517.591736 83.592926,516.125061 82.266548,513.808044 
M346.730896,485.805939 
	C341.289246,481.972504 335.938995,478.000214 330.380859,474.343842 
	C324.568115,470.520020 319.001923,466.091766 312.018219,464.525665 
	C309.110229,463.873505 305.067444,462.086060 303.729614,466.147980 
	C302.538147,469.765594 306.531158,471.098663 309.131958,472.108307 
	C316.837280,475.099670 323.471130,479.784180 330.191620,484.414276 
	C335.667419,488.186768 341.285736,491.761414 346.950226,495.246033 
	C348.830322,496.402588 351.362732,498.195190 353.085999,495.440125 
	C354.458252,493.246185 353.119080,490.932465 351.257874,489.279755 
	C350.017456,488.178253 348.610840,487.263885 346.730896,485.805939 
M288.034821,484.251099 
	C270.098480,481.792053 252.162094,479.333221 234.225800,476.873749 
	C230.181335,476.319214 226.135818,475.626465 221.833679,476.725250 
	C222.252762,479.992188 224.164124,481.244415 226.822311,481.691803 
	C230.589966,482.325897 234.371582,482.877594 238.137772,483.519928 
	C254.688797,486.342743 271.285583,488.809845 288.077759,489.616272 
	C290.057739,489.711395 293.067261,490.363190 293.290283,487.354950 
	C293.467712,484.961517 290.912292,484.549561 288.034821,484.251099 
M275.810913,415.436554 
	C278.094818,415.853851 280.362976,416.472015 282.665436,416.652649 
	C291.282593,417.328613 293.877808,420.482605 292.876801,429.290222 
	C292.595337,431.766846 292.293854,434.246094 292.153076,436.732727 
	C291.935486,440.576599 294.410370,442.024597 297.698578,442.482758 
	C301.167267,442.966064 301.947754,440.405853 302.323486,437.857605 
	C302.953552,433.584442 303.573914,429.284760 303.758942,424.977386 
	C303.999207,419.383942 301.533630,416.740845 295.858124,416.218781 
	C283.251251,415.059143 270.820312,412.742065 258.339905,410.738495 
	C256.525055,410.447174 254.494644,409.716705 252.337997,412.354767 
	C260.318817,413.385742 267.633453,414.330688 275.810913,415.436554 
M386.441193,558.932068 
	C383.550964,549.850647 383.619354,540.085632 379.936676,531.006592 
	C376.180481,544.321106 376.560577,558.409607 370.107147,571.104248 
	C374.731079,571.618896 376.799408,571.341553 381.276367,569.867310 
	C387.975220,567.661438 388.584900,566.514648 386.441193,558.932068 
M292.565216,387.239014 
	C274.562439,386.323120 256.824707,384.185028 240.484283,375.602600 
	C258.916077,392.520660 293.616852,396.376801 309.716187,389.769897 
	C309.085022,387.244141 307.062012,387.088409 305.036682,387.090729 
	C301.206177,387.095154 297.375732,387.187927 292.565216,387.239014 
M246.501129,299.184357 
	C248.240311,296.172546 249.698425,292.946442 251.790085,290.203430 
	C254.382401,286.803772 253.459091,284.501434 250.350693,282.404541 
	C246.884308,280.066132 245.382309,283.132660 244.122116,285.144287 
	C237.533752,295.661102 235.221832,307.121094 237.347610,319.400330 
	C237.567062,320.667999 237.802917,322.092224 240.353287,322.051300 
	C242.150360,314.742371 242.882141,306.931427 246.501129,299.184357 
M183.695282,521.047424 
	C183.235886,526.426758 182.168427,531.946716 187.301468,536.557434 
	C189.648483,534.208313 191.626755,532.086182 190.357986,528.667419 
	C188.410873,523.420776 188.650650,518.277222 190.693283,513.114319 
	C191.031693,512.258972 191.147385,511.073669 190.834991,510.239777 
	C187.461487,501.234680 189.860168,492.170959 190.433487,483.128143 
	C190.578476,480.841431 191.443390,478.482697 188.853745,476.292267 
	C187.177536,490.910034 185.501343,505.527832 183.695282,521.047424 
M219.196472,326.080383 
	C217.432892,325.439758 216.744308,326.805878 216.161636,327.917419 
	C211.995316,335.865601 210.735352,344.381775 210.881943,353.570343 
	C212.566864,353.296295 213.695618,353.132019 214.816986,352.927216 
	C222.108337,351.595642 222.646439,350.727112 222.947510,343.601898 
	C223.201080,337.600128 221.389633,332.126343 219.196472,326.080383 
M363.114166,320.748352 
	C361.561066,326.070892 360.440887,331.420746 362.073914,336.948456 
	C362.500641,338.393036 362.828369,340.096680 364.520203,340.421356 
	C366.482941,340.798004 367.530640,339.189911 368.332581,337.746735 
	C370.970978,332.998688 372.019501,327.735596 372.505585,322.433685 
	C372.826385,318.934174 373.773712,313.849396 369.662323,312.865112 
	C365.737305,311.925476 364.845886,316.965790 363.114166,320.748352 
M433.624481,501.998688 
	C435.297455,503.077362 437.146545,504.575165 439.013885,503.036316 
	C440.652710,501.685760 440.410095,499.419281 440.033295,497.443848 
	C439.065948,492.371887 437.614441,487.430176 434.764374,483.081696 
	C433.597778,481.301727 432.672424,478.229706 429.762726,479.298950 
	C427.296753,480.205139 426.360962,482.836945 426.329102,485.466461 
	C426.252747,491.772644 428.808685,497.015076 433.624481,501.998688 
M356.171234,383.677063 
	C354.196777,385.501190 352.516968,387.581238 351.370819,390.000458 
	C350.289429,392.283112 349.248962,394.767700 351.876862,396.756134 
	C354.252838,398.553925 356.562927,398.016998 358.637665,396.097626 
	C361.320251,393.615936 363.996490,391.126648 366.635925,388.599396 
	C368.273560,387.031342 369.734467,385.233978 367.963715,382.980804 
	C366.275787,380.833099 364.163483,379.154114 361.114410,380.078094 
	C359.320557,380.621735 357.883636,381.760132 356.171234,383.677063 
M347.237549,328.441589 
	C347.672882,337.421478 348.588989,339.676117 352.461761,341.298981 
	C351.442810,326.250732 349.463623,322.013947 360.190613,304.657135 
	C356.744324,304.129456 354.856781,305.962463 353.195190,308.315186 
	C349.120270,314.085022 347.455475,320.593597 347.237549,328.441589 
M394.558807,600.101013 
	C392.758118,603.717957 391.333893,607.297668 392.876343,611.511963 
	C394.035065,614.677979 395.368103,615.231567 397.729736,612.723022 
	C403.202484,606.909790 406.252960,602.469788 399.668579,592.045166 
	C397.091034,593.887939 396.194794,596.790283 394.558807,600.101013 
M299.299072,918.741028 
	C305.270477,926.557190 316.854584,930.690247 324.579865,927.723572 
	C323.585632,926.059021 322.962799,924.254395 320.386322,924.198730 
	C312.140594,924.020752 304.565979,921.667175 297.849213,916.675659 
	C298.225891,917.204346 298.602570,917.733032 299.299072,918.741028 
M286.253143,248.230438 
	C284.095703,248.160141 281.938721,248.063156 279.780701,248.027161 
	C277.680084,247.992126 275.578461,248.019547 273.477264,248.019547 
	C296.139832,248.340546 315.995605,255.943451 333.609528,269.978027 
	C322.263306,257.991821 303.763367,249.492569 286.253143,248.230438 
M299.234924,457.242249 
	C299.262939,458.367065 298.876862,459.557526 299.756866,460.562012 
	C301.686127,460.243652 303.625488,459.992767 305.533875,459.593811 
	C309.132172,458.841675 308.836731,455.938751 308.758179,453.320343 
	C308.655640,449.902313 306.551544,448.292999 303.325684,448.137695 
	C300.189545,447.986725 300.234375,450.412659 299.972229,452.565155 
	C299.813019,453.872467 299.532471,455.165009 299.234924,457.242249 
M206.220459,455.567566 
	C206.456406,454.814575 207.117752,453.910400 206.132706,453.359985 
	C202.941605,451.576935 193.902985,455.058167 192.645050,458.469147 
	C192.197662,459.682312 192.221786,460.694916 193.452881,461.477356 
	C197.402954,463.987946 204.881226,460.874084 206.220459,455.567566 
M296.200134,482.375275 
	C297.417999,483.707886 298.570892,485.108612 299.874634,486.351105 
	C300.883881,487.312958 302.277405,488.000732 303.239471,486.466553 
	C304.963989,483.716614 305.749237,480.508636 304.450897,477.525574 
	C303.497040,475.334137 300.759644,474.688599 298.532349,474.634735 
	C296.480621,474.585144 296.386597,476.785339 296.130646,478.385437 
	C295.952942,479.496490 295.950409,480.635529 296.200134,482.375275 
M198.632278,556.396118 
	C199.154510,554.541992 199.761658,552.706787 200.179474,550.829407 
	C200.839874,547.862183 198.556900,546.350403 196.845627,544.632690 
	C195.827438,543.610657 194.514359,543.205688 193.315750,544.376953 
	C191.517532,546.134094 191.850906,548.366943 192.377472,550.459351 
	C193.135040,553.469666 194.583649,556.002808 198.632278,556.396118 
M358.008301,339.211670 
	C356.968323,328.132751 357.685944,317.435120 365.208618,308.170898 
	C359.872925,310.437897 358.302155,315.118927 357.146271,319.721924 
	C355.482513,326.347412 353.362488,333.168610 358.008301,339.211670 
M127.648918,445.788635 
	C133.822769,445.545563 138.637177,440.901154 138.028122,435.775970 
	C132.275375,436.654724 127.271355,441.173767 127.648918,445.788635 
M276.356079,374.345428 
	C274.229340,373.990875 272.102386,373.637451 269.975891,373.281494 
	C268.056854,372.960266 266.138306,372.636261 264.219574,372.313446 
	C278.967529,377.086121 293.668701,377.403046 308.230560,372.101776 
	C297.974976,373.560730 287.829468,376.561127 276.356079,374.345428 
M168.428696,484.093231 
	C164.267487,484.251404 163.312149,485.354218 164.154221,489.334747 
	C166.418762,488.457947 168.031372,487.107117 168.428696,484.093231 
M218.847183,300.769745 
	C220.121826,297.444916 220.717590,293.983643 220.851044,290.420929 
	C218.741653,293.604309 217.927963,297.093475 218.847183,300.769745 
M153.465561,461.288757 
	C151.998901,462.996155 152.564270,464.299164 154.368240,465.184845 
	C155.216385,465.601257 156.103317,465.181305 156.310272,464.273895 
	C156.734711,462.412872 156.273376,461.008484 153.465561,461.288757 
z"/>
<path fill="#000000" opacity="1.000000" stroke="none" 
	d="
M233.986572,467.624207 
	C229.332016,469.678192 225.163391,467.969116 220.978195,467.121277 
	C219.718094,466.865997 218.843414,465.931885 218.937271,464.633179 
	C219.152664,461.652771 219.491547,458.677032 219.910248,455.717773 
	C220.059570,454.662323 220.959091,454.126007 221.993774,453.810486 
	C225.294281,452.804016 232.101959,454.754211 235.006165,457.746643 
	C239.093536,454.171326 243.877747,455.756653 248.047363,457.134979 
	C253.008133,458.774902 250.775879,463.591858 250.560272,467.121918 
	C250.378525,470.097656 248.255707,471.363983 245.210968,470.769531 
	C241.494797,470.043945 237.500092,470.302185 233.986572,467.624207 
z"/>
<path fill="#000000" opacity="1.000000" stroke="none" 
	d="
M278.223053,473.165833 
	C272.512695,472.711823 270.942169,469.860535 272.394684,464.974670 
	C272.580963,464.348236 272.590546,463.666260 272.656525,463.007477 
	C273.705170,452.535095 277.717621,450.116577 287.899994,453.633636 
	C290.711029,454.604584 291.244354,456.586487 290.991364,459.084015 
	C290.674408,462.213257 290.157806,465.323425 289.882019,468.455414 
	C289.504120,472.746857 287.778809,474.919037 283.104218,473.505890 
	C281.717499,473.086609 280.141998,473.291931 278.223053,473.165833 
z"/>
<path fill="#000000" opacity="1.000000" stroke="none" 
	d="
M228.790710,432.893921 
	C229.256866,429.342987 229.677750,426.225281 230.112549,423.109558 
	C230.564484,419.871002 232.322876,418.560150 235.632126,419.093231 
	C240.046814,419.804352 244.486710,420.373047 248.927902,420.900940 
	C252.209167,421.290985 253.614502,423.009918 253.172119,426.278198 
	C252.483322,431.366791 251.806152,436.456970 251.130508,441.547333 
	C250.783371,444.162567 249.278625,445.388336 246.686584,445.041107 
	C241.762955,444.381470 236.823608,443.777740 231.943970,442.866211 
	C225.396713,441.643127 228.759033,436.870850 228.790710,432.893921 
M235.191086,438.335358 
	C243.922897,441.499176 247.146469,439.464996 248.100510,430.277252 
	C248.346176,427.911255 248.970764,425.338379 245.637238,424.825409 
	C242.001114,424.265869 237.320175,422.050140 235.030945,425.692108 
	C232.946884,429.007690 231.526978,433.690399 235.191086,438.335358 
z"/>
<path fill="#000000" opacity="1.000000" stroke="none" 
	d="
M282.728760,432.562042 
	C280.842133,444.398804 280.842133,444.398804 269.395386,442.525299 
	C261.589172,441.247650 261.529083,440.965759 262.592987,432.857819 
	C264.286591,419.951324 263.581451,422.074554 275.841858,423.130951 
	C282.745117,423.725677 283.467041,425.054810 282.728760,432.562042 
M277.983429,437.343536 
	C278.283447,435.395081 278.647400,433.453766 278.866394,431.496246 
	C279.109314,429.324463 278.560547,427.546570 276.100098,426.985657 
	C273.392578,426.368378 270.603882,425.386444 268.003174,426.997711 
	C266.610016,427.860840 265.884796,436.745789 266.848999,437.927032 
	C268.456787,439.896576 274.836121,440.000519 277.983429,437.343536 
z"/>
</svg>